<svg width="248" height="80" viewBox="0 0 248 80" fill="none" xmlns="http://www.w3.org/2000/svg">
<path d="M6.66669 26.6667V65.0967C6.66669 65.0967 22.07 64.5233 40 73.3333C57.93 64.5233 73.3334 65.0967 73.3334 65.0967V26.6667C73.3334 26.6667 55.1534 26.6667 40 34.9033C24.8467 26.6667 6.66669 26.6667 6.66669 26.6667Z" fill="#2F584E"/>
<path d="M40 26.6667C45.5228 26.6667 50 22.1895 50 16.6667C50 11.1438 45.5228 6.66666 40 6.66666C34.4772 6.66666 30 11.1438 30 16.6667C30 22.1895 34.4772 26.6667 40 26.6667Z" fill="#FF9257"/>
<path d="M37.8947 44.1737C38.3932 42.8777 38.6424 42.2297 39.0022 42.0417C39.3141 41.8788 39.6859 41.8788 39.9978 42.0417C40.3576 42.2297 40.6068 42.8777 41.1053 44.1737L41.8137 46.0157C42.1381 46.859 42.3002 47.2806 42.5524 47.6352C42.7759 47.9495 43.0505 48.2241 43.3648 48.4476C43.7194 48.6998 44.141 48.8619 44.9843 49.1863L46.8263 49.8947C48.1223 50.3932 48.7703 50.6424 48.9583 51.0022C49.1212 51.3141 49.1212 51.6859 48.9583 51.9978C48.7703 52.3576 48.1223 52.6068 46.8263 53.1053L44.9843 53.8137C44.141 54.1381 43.7194 54.3002 43.3648 54.5524C43.0505 54.7759 42.7759 55.0505 42.5524 55.3648C42.3002 55.7194 42.1381 56.141 41.8138 56.9843L41.1053 58.8263C40.6068 60.1223 40.3576 60.7703 39.9978 60.9583C39.6859 61.1212 39.3141 61.1212 39.0022 60.9583C38.6424 60.7703 38.3932 60.1223 37.8947 58.8263L37.1863 56.9843C36.8619 56.141 36.6998 55.7194 36.4476 55.3648C36.2241 55.0505 35.9495 54.7759 35.6352 54.5524C35.2806 54.3002 34.859 54.1381 34.0157 53.8138L32.1737 53.1053C30.8777 52.6068 30.2297 52.3576 30.0417 51.9978C29.8788 51.6859 29.8788 51.3141 30.0417 51.0022C30.2297 50.6424 30.8777 50.3932 32.1737 49.8947L34.0157 49.1863C34.859 48.8619 35.2806 48.6998 35.6352 48.4476C35.9495 48.2241 36.2241 47.9495 36.4476 47.6352C36.6998 47.2806 36.8619 46.859 37.1863 46.0157L37.8947 44.1737Z" fill="white"/>
<path d="M90.8428 58.196C90.3761 58.196 90.0121 58.0653 89.7508 57.804C89.5081 57.5427 89.3868 57.1787 89.3868 56.712V39.548C89.3868 39.0627 89.5081 38.6987 89.7508 38.456C90.0121 38.1947 90.3761 38.064 90.8428 38.064C91.3094 38.064 91.6641 38.1947 91.9068 38.456C92.1681 38.6987 92.2988 39.0627 92.2988 39.548V46.772H103.359V39.548C103.359 39.0627 103.48 38.6987 103.723 38.456C103.984 38.1947 104.348 38.064 104.815 38.064C105.281 38.064 105.636 38.1947 105.879 38.456C106.121 38.6987 106.243 39.0627 106.243 39.548V56.712C106.243 57.1787 106.121 57.5427 105.879 57.804C105.636 58.0653 105.281 58.196 104.815 58.196C104.348 58.196 103.984 58.0653 103.723 57.804C103.48 57.5427 103.359 57.1787 103.359 56.712V49.208H92.2988V56.712C92.2988 57.1787 92.1774 57.5427 91.9348 57.804C91.6921 58.0653 91.3281 58.196 90.8428 58.196ZM116.676 58.252C115.182 58.252 113.894 57.972 112.812 57.412C111.748 56.8333 110.917 56.0213 110.32 54.976C109.741 53.912 109.452 52.652 109.452 51.196C109.452 49.7773 109.741 48.536 110.32 47.472C110.898 46.408 111.692 45.5773 112.7 44.98C113.708 44.3827 114.856 44.084 116.144 44.084C117.096 44.084 117.945 44.2427 118.692 44.56C119.438 44.8587 120.073 45.3067 120.596 45.904C121.137 46.4827 121.538 47.192 121.8 48.032C122.08 48.872 122.22 49.8147 122.22 50.86C122.22 51.1773 122.126 51.42 121.94 51.588C121.753 51.7373 121.473 51.812 121.1 51.812H111.692V50.076H120.316L119.84 50.468C119.84 49.5347 119.7 48.7413 119.42 48.088C119.158 47.4347 118.757 46.94 118.216 46.604C117.693 46.2493 117.04 46.072 116.256 46.072C115.378 46.072 114.632 46.2773 114.016 46.688C113.418 47.0987 112.961 47.668 112.644 48.396C112.326 49.124 112.168 49.9733 112.168 50.944V51.112C112.168 52.7547 112.55 53.996 113.316 54.836C114.1 55.6573 115.229 56.068 116.704 56.068C117.264 56.068 117.852 55.9933 118.468 55.844C119.102 55.6947 119.7 55.4427 120.26 55.088C120.577 54.9013 120.857 54.8173 121.1 54.836C121.361 54.8547 121.566 54.9387 121.716 55.088C121.884 55.2373 121.986 55.424 122.024 55.648C122.061 55.872 122.024 56.1053 121.912 56.348C121.8 56.572 121.604 56.7773 121.324 56.964C120.689 57.3933 119.952 57.72 119.112 57.944C118.272 58.1493 117.46 58.252 116.676 58.252ZM129.419 58.252C127.963 58.252 126.861 57.832 126.115 56.992C125.387 56.1333 125.023 54.9013 125.023 53.296V39.492C125.023 39.0253 125.144 38.6707 125.387 38.428C125.629 38.1853 125.975 38.064 126.423 38.064C126.871 38.064 127.216 38.1853 127.459 38.428C127.72 38.6707 127.851 39.0253 127.851 39.492V53.128C127.851 54.0613 128.037 54.7613 128.411 55.228C128.803 55.676 129.363 55.9 130.091 55.9C130.259 55.9 130.408 55.9 130.539 55.9C130.669 55.8813 130.8 55.8627 130.931 55.844C131.155 55.8253 131.313 55.8907 131.407 56.04C131.5 56.1707 131.547 56.4507 131.547 56.88C131.547 57.272 131.463 57.58 131.295 57.804C131.127 58.0093 130.856 58.14 130.483 58.196C130.315 58.2147 130.137 58.224 129.951 58.224C129.764 58.2427 129.587 58.252 129.419 58.252ZM137.697 58.252C136.241 58.252 135.14 57.832 134.393 56.992C133.665 56.1333 133.301 54.9013 133.301 53.296V39.492C133.301 39.0253 133.423 38.6707 133.665 38.428C133.908 38.1853 134.253 38.064 134.701 38.064C135.149 38.064 135.495 38.1853 135.737 38.428C135.999 38.6707 136.129 39.0253 136.129 39.492V53.128C136.129 54.0613 136.316 54.7613 136.689 55.228C137.081 55.676 137.641 55.9 138.369 55.9C138.537 55.9 138.687 55.9 138.817 55.9C138.948 55.8813 139.079 55.8627 139.209 55.844C139.433 55.8253 139.592 55.8907 139.685 56.04C139.779 56.1707 139.825 56.4507 139.825 56.88C139.825 57.272 139.741 57.58 139.573 57.804C139.405 58.0093 139.135 58.14 138.761 58.196C138.593 58.2147 138.416 58.224 138.229 58.224C138.043 58.2427 137.865 58.252 137.697 58.252ZM147.379 58.252C145.998 58.252 144.803 57.9627 143.795 57.384C142.806 56.8053 142.031 55.984 141.471 54.92C140.911 53.856 140.631 52.6053 140.631 51.168C140.631 50.0667 140.79 49.0867 141.107 48.228C141.424 47.3693 141.872 46.632 142.451 46.016C143.048 45.3813 143.758 44.9053 144.579 44.588C145.419 44.252 146.352 44.084 147.379 44.084C148.742 44.084 149.918 44.3733 150.907 44.952C151.915 45.5307 152.699 46.352 153.259 47.416C153.819 48.4613 154.099 49.712 154.099 51.168C154.099 52.2507 153.94 53.2307 153.623 54.108C153.306 54.9853 152.848 55.732 152.251 56.348C151.672 56.964 150.963 57.44 150.123 57.776C149.302 58.0933 148.387 58.252 147.379 58.252ZM147.379 56.068C148.144 56.068 148.816 55.8813 149.395 55.508C149.974 55.1347 150.422 54.584 150.739 53.856C151.075 53.128 151.243 52.232 151.243 51.168C151.243 49.5627 150.888 48.3493 150.179 47.528C149.47 46.7067 148.536 46.296 147.379 46.296C146.595 46.296 145.914 46.4827 145.335 46.856C144.756 47.2107 144.299 47.752 143.963 48.48C143.646 49.208 143.487 50.104 143.487 51.168C143.487 52.7547 143.842 53.968 144.551 54.808C145.26 55.648 146.203 56.068 147.379 56.068ZM171.042 58.196C170.631 58.196 170.295 58.0933 170.034 57.888C169.791 57.6827 169.586 57.3653 169.418 56.936L163.398 39.772C163.23 39.2867 163.258 38.8853 163.482 38.568C163.725 38.232 164.117 38.064 164.658 38.064C165.069 38.064 165.386 38.1573 165.61 38.344C165.853 38.5307 166.039 38.8293 166.17 39.24L171.63 55.312H170.594L176.194 39.296C176.362 38.8853 176.558 38.5773 176.782 38.372C177.006 38.1667 177.305 38.064 177.678 38.064C178.051 38.064 178.341 38.1667 178.546 38.372C178.77 38.5773 178.966 38.8947 179.134 39.324L184.622 55.312H183.698L189.214 39.24C189.345 38.848 189.522 38.5587 189.746 38.372C189.989 38.1667 190.306 38.064 190.698 38.064C191.183 38.064 191.538 38.232 191.762 38.568C192.005 38.8853 192.033 39.2867 191.846 39.772L185.798 56.964C185.63 57.3747 185.425 57.6827 185.182 57.888C184.939 58.0933 184.613 58.196 184.202 58.196C183.773 58.196 183.437 58.0933 183.194 57.888C182.951 57.6827 182.755 57.3653 182.606 56.936L177.314 41.788H177.93L172.582 56.964C172.433 57.3747 172.237 57.6827 171.994 57.888C171.77 58.0933 171.453 58.196 171.042 58.196ZM199.067 58.252C197.685 58.252 196.491 57.9627 195.483 57.384C194.493 56.8053 193.719 55.984 193.159 54.92C192.599 53.856 192.319 52.6053 192.319 51.168C192.319 50.0667 192.477 49.0867 192.795 48.228C193.112 47.3693 193.56 46.632 194.139 46.016C194.736 45.3813 195.445 44.9053 196.267 44.588C197.107 44.252 198.04 44.084 199.067 44.084C200.429 44.084 201.605 44.3733 202.595 44.952C203.603 45.5307 204.387 46.352 204.947 47.416C205.507 48.4613 205.787 49.712 205.787 51.168C205.787 52.2507 205.628 53.2307 205.311 54.108C204.993 54.9853 204.536 55.732 203.939 56.348C203.36 56.964 202.651 57.44 201.811 57.776C200.989 58.0933 200.075 58.252 199.067 58.252ZM199.067 56.068C199.832 56.068 200.504 55.8813 201.083 55.508C201.661 55.1347 202.109 54.584 202.427 53.856C202.763 53.128 202.931 52.232 202.931 51.168C202.931 49.5627 202.576 48.3493 201.867 47.528C201.157 46.7067 200.224 46.296 199.067 46.296C198.283 46.296 197.601 46.4827 197.023 46.856C196.444 47.2107 195.987 47.752 195.651 48.48C195.333 49.208 195.175 50.104 195.175 51.168C195.175 52.7547 195.529 53.968 196.239 54.808C196.948 55.648 197.891 56.068 199.067 56.068ZM210.111 58.196C209.644 58.196 209.289 58.0747 209.047 57.832C208.804 57.5707 208.683 57.216 208.683 56.768V45.568C208.683 45.1013 208.804 44.7467 209.047 44.504C209.289 44.2613 209.625 44.14 210.055 44.14C210.503 44.14 210.839 44.2613 211.063 44.504C211.305 44.7467 211.427 45.1013 211.427 45.568V47.612H211.147C211.445 46.492 211.996 45.6427 212.799 45.064C213.601 44.4853 214.628 44.1493 215.879 44.056C216.215 44.0373 216.476 44.1213 216.663 44.308C216.868 44.4947 216.98 44.784 216.999 45.176C217.036 45.568 216.952 45.8853 216.747 46.128C216.541 46.352 216.224 46.4827 215.795 46.52L215.263 46.576C214.049 46.688 213.125 47.0707 212.491 47.724C211.856 48.3773 211.539 49.2733 211.539 50.412V56.768C211.539 57.216 211.417 57.5707 211.175 57.832C210.951 58.0747 210.596 58.196 210.111 58.196ZM223.244 58.252C221.788 58.252 220.686 57.832 219.94 56.992C219.212 56.1333 218.848 54.9013 218.848 53.296V39.492C218.848 39.0253 218.969 38.6707 219.212 38.428C219.454 38.1853 219.8 38.064 220.248 38.064C220.696 38.064 221.041 38.1853 221.284 38.428C221.545 38.6707 221.676 39.0253 221.676 39.492V53.128C221.676 54.0613 221.862 54.7613 222.236 55.228C222.628 55.676 223.188 55.9 223.916 55.9C224.084 55.9 224.233 55.9 224.364 55.9C224.494 55.8813 224.625 55.8627 224.756 55.844C224.98 55.8253 225.138 55.8907 225.232 56.04C225.325 56.1707 225.372 56.4507 225.372 56.88C225.372 57.272 225.288 57.58 225.12 57.804C224.952 58.0093 224.681 58.14 224.308 58.196C224.14 58.2147 223.962 58.224 223.776 58.224C223.589 58.2427 223.412 58.252 223.244 58.252ZM232.198 58.252C231.003 58.252 229.948 57.972 229.034 57.412C228.138 56.8333 227.438 56.012 226.934 54.948C226.43 53.8653 226.178 52.6053 226.178 51.168C226.178 49.6933 226.43 48.4333 226.934 47.388C227.438 46.3427 228.138 45.5307 229.034 44.952C229.948 44.3733 231.003 44.084 232.198 44.084C233.392 44.084 234.419 44.3827 235.278 44.98C236.155 45.5587 236.743 46.3427 237.042 47.332H236.734V39.492C236.734 39.0253 236.855 38.6707 237.098 38.428C237.34 38.1853 237.686 38.064 238.134 38.064C238.582 38.064 238.927 38.1853 239.17 38.428C239.431 38.6707 239.562 39.0253 239.562 39.492V56.768C239.562 57.216 239.44 57.5707 239.198 57.832C238.955 58.0747 238.61 58.196 238.162 58.196C237.714 58.196 237.368 58.0747 237.126 57.832C236.883 57.5707 236.762 57.216 236.762 56.768V54.304L237.07 54.92C236.771 55.928 236.183 56.74 235.306 57.356C234.447 57.9533 233.411 58.252 232.198 58.252ZM232.926 56.068C233.691 56.068 234.363 55.8813 234.942 55.508C235.52 55.1347 235.968 54.584 236.286 53.856C236.622 53.128 236.79 52.232 236.79 51.168C236.79 49.5627 236.435 48.3493 235.726 47.528C235.016 46.7067 234.083 46.296 232.926 46.296C232.142 46.296 231.46 46.4827 230.882 46.856C230.303 47.2107 229.846 47.752 229.51 48.48C229.192 49.208 229.034 50.104 229.034 51.168C229.034 52.7547 229.388 53.968 230.098 54.808C230.807 55.648 231.75 56.068 232.926 56.068ZM244.625 52.68C244.326 52.68 244.093 52.5867 243.925 52.4C243.775 52.2133 243.682 51.952 243.645 51.616L242.973 39.912C242.935 39.352 243.057 38.904 243.337 38.568C243.617 38.232 244.046 38.064 244.625 38.064C245.166 38.064 245.577 38.232 245.857 38.568C246.137 38.904 246.249 39.352 246.193 39.912L245.521 51.616C245.502 51.952 245.409 52.2133 245.241 52.4C245.091 52.5867 244.886 52.68 244.625 52.68ZM244.625 58.112C244.083 58.112 243.645 57.944 243.309 57.608C242.973 57.272 242.805 56.8427 242.805 56.32C242.805 55.7973 242.973 55.3773 243.309 55.06C243.645 54.724 244.083 54.556 244.625 54.556C245.166 54.556 245.595 54.724 245.913 55.06C246.23 55.3773 246.389 55.7973 246.389 56.32C246.389 56.8427 246.23 57.272 245.913 57.608C245.595 57.944 245.166 58.112 244.625 58.112Z" fill="#1A1A1A"/>
</svg>
