<svg width="1126" height="1120" viewBox="0 0 1126 1120" fill="none" xmlns="http://www.w3.org/2000/svg">
<path d="M81.1444 419.37V426.627M81.1444 966.605V973.972M92.5779 46.9053C92.5779 72.2581 72.0775 92.8106 46.7889 92.8106C21.5004 92.8106 1 72.2581 1 46.9053C1 21.5525 21.5004 1 46.7889 1C72.0775 1 92.5779 21.5525 92.5779 46.9053ZM92.5779 594.14C92.5779 619.493 72.0775 640.046 46.7889 640.046C21.5004 640.046 1 619.493 1 594.14C1 568.788 21.5004 548.235 46.7889 548.235C72.0775 548.235 92.5779 568.788 92.5779 594.14ZM92.5779 320.468C92.5779 345.821 72.0775 366.373 46.7889 366.373C21.5004 366.373 1 345.821 1 320.468C1 295.115 21.5004 274.563 46.7889 274.563C72.0775 274.563 92.5779 295.115 92.5779 320.468ZM92.5779 867.648C92.5779 892.97 72.0775 913.498 46.7889 913.498C21.5004 913.498 1 892.97 1 867.648C1 842.325 21.5004 821.798 46.7889 821.798C72.0775 821.798 92.5779 842.325 92.5779 867.648ZM92.5779 183.742C92.5779 209.064 72.0775 229.592 46.7889 229.592C21.5004 229.592 1 209.064 1 183.742C1 158.419 21.5004 137.891 46.7889 137.891C72.0775 137.891 92.5779 158.419 92.5779 183.742ZM92.5779 730.977C92.5779 756.299 72.0775 776.827 46.7889 776.827C21.5004 776.827 1 756.299 1 730.977C1 705.654 21.5004 685.126 46.7889 685.126C72.0775 685.126 92.5779 705.654 92.5779 730.977ZM92.5779 457.304C92.5779 482.627 72.0775 503.154 46.7889 503.154C21.5004 503.154 1 482.627 1 457.304C1 431.982 21.5004 411.454 46.7889 411.454C72.0775 411.454 92.5779 431.982 92.5779 457.304ZM92.5779 1004.48C92.5779 1029.84 72.0775 1050.39 46.7889 1050.39C21.5004 1050.39 1 1029.84 1 1004.48C1 979.131 21.5004 958.579 46.7889 958.579C72.0775 958.579 92.5779 979.131 92.5779 1004.48ZM92.5779 115.406C92.5779 140.759 72.0775 161.311 46.7889 161.311C21.5004 161.311 1 140.759 1 115.406C1 90.0531 21.5004 69.5006 46.7889 69.5006C72.0775 69.5006 92.5779 90.0531 92.5779 115.406ZM92.5779 662.586C92.5779 687.908 72.0775 708.436 46.7889 708.436C21.5004 708.436 1 687.908 1 662.586C1 637.264 21.5004 616.736 46.7889 616.736C72.0775 616.736 92.5779 637.264 92.5779 662.586ZM92.5779 388.913C92.5779 414.236 72.0775 434.764 46.7889 434.764C21.5004 434.764 1 414.236 1 388.913C1 363.591 21.5004 343.063 46.7889 343.063C72.0775 343.063 92.5779 363.591 92.5779 388.913ZM92.5779 936.148C92.5779 961.471 72.0775 981.999 46.7889 981.999C21.5004 981.999 1 961.471 1 936.148C1 910.826 21.5004 890.298 46.7889 890.298C72.0775 890.298 92.5779 910.826 92.5779 936.148ZM92.5779 252.242C92.5779 277.565 72.0775 298.092 46.7889 298.092C21.5004 298.092 1 277.565 1 252.242C1 226.92 21.5004 206.392 46.7889 206.392C72.0775 206.392 92.5779 226.92 92.5779 252.242ZM92.5779 799.422C92.5779 824.775 72.0775 845.328 46.7889 845.328C21.5004 845.328 1 824.775 1 799.422C1 774.069 21.5004 753.517 46.7889 753.517C72.0775 753.517 92.5779 774.069 92.5779 799.422ZM92.5779 525.695C92.5779 551.017 72.0775 571.545 46.7889 571.545C21.5004 571.545 1 551.017 1 525.695C1 500.372 21.5004 479.844 46.7889 479.844C72.0775 479.844 92.5779 500.372 92.5779 525.695ZM92.5779 1072.93C92.5779 1098.25 72.0775 1118.78 46.7889 1118.78C21.5004 1118.78 1 1098.25 1 1072.93C1 1047.61 21.5004 1027.08 46.7889 1027.08C72.0775 1027.08 92.5779 1047.61 92.5779 1072.93ZM643.254 46.9053C643.254 72.2581 622.729 92.8106 597.41 92.8106C572.092 92.8106 551.566 72.2581 551.566 46.9053C551.566 21.5525 572.092 1 597.41 1C622.729 1 643.254 21.5525 643.254 46.9053ZM643.254 594.14C643.254 619.493 622.729 640.046 597.41 640.046C572.092 640.046 551.566 619.493 551.566 594.14C551.566 568.788 572.092 548.235 597.41 548.235C622.729 548.235 643.254 568.788 643.254 594.14ZM643.254 320.468C643.254 345.821 622.729 366.373 597.41 366.373C572.092 366.373 551.566 345.821 551.566 320.468C551.566 295.115 572.092 274.563 597.41 274.563C622.729 274.563 643.254 295.115 643.254 320.468ZM643.254 867.648C643.254 892.97 622.729 913.498 597.41 913.498C572.092 913.498 551.566 892.97 551.566 867.648C551.566 842.325 572.092 821.798 597.41 821.798C622.729 821.798 643.254 842.325 643.254 867.648ZM643.254 183.742C643.254 209.064 622.729 229.592 597.41 229.592C572.092 229.592 551.566 209.064 551.566 183.742C551.566 158.419 572.092 137.891 597.41 137.891C622.729 137.891 643.254 158.419 643.254 183.742ZM643.254 730.977C643.254 756.299 622.729 776.827 597.41 776.827C572.092 776.827 551.566 756.299 551.566 730.977C551.566 705.654 572.092 685.126 597.41 685.126C622.729 685.126 643.254 705.654 643.254 730.977ZM643.254 457.304C643.254 482.627 622.729 503.154 597.41 503.154C572.092 503.154 551.566 482.627 551.566 457.304C551.566 431.982 572.092 411.454 597.41 411.454C622.729 411.454 643.254 431.982 643.254 457.304ZM643.254 1004.48C643.254 1029.84 622.729 1050.39 597.41 1050.39C572.092 1050.39 551.566 1029.84 551.566 1004.48C551.566 979.131 572.092 958.579 597.41 958.579C622.729 958.579 643.254 979.131 643.254 1004.48ZM643.254 115.406C643.254 140.759 622.729 161.311 597.41 161.311C572.092 161.311 551.566 140.759 551.566 115.406C551.566 90.0531 572.092 69.5006 597.41 69.5006C622.729 69.5006 643.254 90.0531 643.254 115.406ZM643.254 662.586C643.254 687.908 622.729 708.436 597.41 708.436C572.092 708.436 551.566 687.908 551.566 662.586C551.566 637.264 572.092 616.736 597.41 616.736C622.729 616.736 643.254 637.264 643.254 662.586ZM643.254 388.913C643.254 414.236 622.729 434.764 597.41 434.764C572.092 434.764 551.566 414.236 551.566 388.913C551.566 363.591 572.092 343.063 597.41 343.063C622.729 343.063 643.254 363.591 643.254 388.913ZM643.254 936.148C643.254 961.471 622.729 981.999 597.41 981.999C572.092 981.999 551.566 961.471 551.566 936.148C551.566 910.826 572.092 890.298 597.41 890.298C622.729 890.298 643.254 910.826 643.254 936.148ZM643.254 252.242C643.254 277.565 622.729 298.092 597.41 298.092C572.092 298.092 551.566 277.565 551.566 252.242C551.566 226.92 572.092 206.392 597.41 206.392C622.729 206.392 643.254 226.92 643.254 252.242ZM643.254 799.422C643.254 824.775 622.729 845.328 597.41 845.328C572.092 845.328 551.566 824.775 551.566 799.422C551.566 774.069 572.092 753.517 597.41 753.517C622.729 753.517 643.254 774.069 643.254 799.422ZM643.254 525.695C643.254 551.017 622.729 571.545 597.41 571.545C572.092 571.545 551.566 551.017 551.566 525.695C551.566 500.372 572.092 479.844 597.41 479.844C622.729 479.844 643.254 500.372 643.254 525.695ZM643.254 1072.93C643.254 1098.25 622.729 1118.78 597.41 1118.78C572.092 1118.78 551.566 1098.25 551.566 1072.93C551.566 1047.61 572.092 1027.08 597.41 1027.08C622.729 1027.08 643.254 1047.61 643.254 1072.93ZM367.971 47.0702C367.971 72.3927 347.471 92.9205 322.182 92.9205C296.894 92.9205 276.393 72.3927 276.393 47.0702C276.393 21.7478 296.894 1.21991 322.182 1.21991C347.471 1.21991 367.971 21.7478 367.971 47.0702ZM367.971 594.305C367.971 619.628 347.471 640.156 322.182 640.156C296.894 640.156 276.393 619.628 276.393 594.305C276.393 568.983 296.894 548.455 322.182 548.455C347.471 548.455 367.971 568.983 367.971 594.305ZM367.971 320.578C367.971 345.931 347.471 366.483 322.182 366.483C296.894 366.483 276.393 345.931 276.393 320.578C276.393 295.225 296.894 274.672 322.182 274.672C347.471 274.672 367.971 295.225 367.971 320.578ZM367.971 867.758C367.971 893.08 347.471 913.608 322.182 913.608C296.894 913.608 276.393 893.08 276.393 867.758C276.393 842.435 296.894 821.908 322.182 821.908C347.471 821.908 367.971 842.435 367.971 867.758ZM367.971 183.852C367.971 209.174 347.471 229.702 322.182 229.702C296.894 229.702 276.393 209.174 276.393 183.852C276.393 158.529 296.894 138.001 322.182 138.001C347.471 138.001 367.971 158.529 367.971 183.852ZM367.971 731.087C367.971 756.409 347.471 776.937 322.182 776.937C296.894 776.937 276.393 756.409 276.393 731.087C276.393 705.764 296.894 685.236 322.182 685.236C347.471 685.236 367.971 705.764 367.971 731.087ZM367.971 457.414C367.971 482.736 347.471 503.264 322.182 503.264C296.894 503.264 276.393 482.736 276.393 457.414C276.393 432.092 296.894 411.564 322.182 411.564C347.471 411.564 367.971 432.092 367.971 457.414ZM367.971 1004.59C367.971 1029.95 347.471 1050.5 322.182 1050.5C296.894 1050.5 276.393 1029.95 276.393 1004.59C276.393 979.241 296.894 958.689 322.182 958.689C347.471 958.689 367.971 979.241 367.971 1004.59ZM367.971 115.516C367.971 140.869 347.471 161.421 322.182 161.421C296.894 161.421 276.393 140.869 276.393 115.516C276.393 90.163 296.894 69.6105 322.182 69.6105C347.471 69.6105 367.971 90.163 367.971 115.516ZM367.971 662.696C367.971 688.018 347.471 708.546 322.182 708.546C296.894 708.546 276.393 688.018 276.393 662.696C276.393 637.373 296.894 616.846 322.182 616.846C347.471 616.846 367.971 637.373 367.971 662.696ZM367.971 389.023C367.971 414.346 347.471 434.874 322.182 434.874C296.894 434.874 276.393 414.346 276.393 389.023C276.393 363.701 296.894 343.173 322.182 343.173C347.471 343.173 367.971 363.701 367.971 389.023ZM367.971 936.258C367.971 961.581 347.471 982.109 322.182 982.109C296.894 982.109 276.393 961.581 276.393 936.258C276.393 910.936 296.894 890.408 322.182 890.408C347.471 890.408 367.971 910.936 367.971 936.258ZM367.971 252.352C367.971 277.675 347.471 298.202 322.182 298.202C296.894 298.202 276.393 277.675 276.393 252.352C276.393 227.03 296.894 206.502 322.182 206.502C347.471 206.502 367.971 227.03 367.971 252.352ZM367.971 799.532C367.971 824.885 347.471 845.437 322.182 845.437C296.894 845.437 276.393 824.885 276.393 799.532C276.393 774.179 296.894 753.627 322.182 753.627C347.471 753.627 367.971 774.179 367.971 799.532ZM367.971 525.86C367.971 551.212 347.471 571.765 322.182 571.765C296.894 571.765 276.393 551.212 276.393 525.86C276.393 500.507 296.894 479.954 322.182 479.954C347.471 479.954 367.971 500.507 367.971 525.86ZM367.971 1073.09C367.971 1098.45 347.471 1119 322.182 1119C296.894 1119 276.393 1098.45 276.393 1073.09C276.393 1047.74 296.894 1027.19 322.182 1027.19C347.471 1027.19 367.971 1047.74 367.971 1073.09ZM918.538 47.0702C918.538 72.3927 898.013 92.9205 872.694 92.9205C847.375 92.9205 826.85 72.3927 826.85 47.0702C826.85 21.7478 847.375 1.21991 872.694 1.21991C898.013 1.21991 918.538 21.7478 918.538 47.0702ZM918.538 594.305C918.538 619.628 898.013 640.156 872.694 640.156C847.375 640.156 826.85 619.628 826.85 594.305C826.85 568.983 847.375 548.455 872.694 548.455C898.013 548.455 918.538 568.983 918.538 594.305ZM918.538 320.578C918.538 345.931 898.013 366.483 872.694 366.483C847.375 366.483 826.85 345.931 826.85 320.578C826.85 295.225 847.375 274.672 872.694 274.672C898.013 274.672 918.538 295.225 918.538 320.578ZM918.538 867.758C918.538 893.08 898.013 913.608 872.694 913.608C847.375 913.608 826.85 893.08 826.85 867.758C826.85 842.435 847.375 821.908 872.694 821.908C898.013 821.908 918.538 842.435 918.538 867.758ZM918.538 183.852C918.538 209.174 898.013 229.702 872.694 229.702C847.375 229.702 826.85 209.174 826.85 183.852C826.85 158.529 847.375 138.001 872.694 138.001C898.013 138.001 918.538 158.529 918.538 183.852ZM918.538 731.087C918.538 756.409 898.013 776.937 872.694 776.937C847.375 776.937 826.85 756.409 826.85 731.087C826.85 705.764 847.375 685.236 872.694 685.236C898.013 685.236 918.538 705.764 918.538 731.087ZM918.538 457.414C918.538 482.736 898.013 503.264 872.694 503.264C847.375 503.264 826.85 482.736 826.85 457.414C826.85 432.092 847.375 411.564 872.694 411.564C898.013 411.564 918.538 432.092 918.538 457.414ZM918.538 1004.59C918.538 1029.95 898.013 1050.5 872.694 1050.5C847.375 1050.5 826.85 1029.95 826.85 1004.59C826.85 979.241 847.375 958.689 872.694 958.689C898.013 958.689 918.538 979.241 918.538 1004.59ZM918.538 115.516C918.538 140.869 898.013 161.421 872.694 161.421C847.375 161.421 826.85 140.869 826.85 115.516C826.85 90.163 847.375 69.6105 872.694 69.6105C898.013 69.6105 918.538 90.163 918.538 115.516ZM918.538 662.696C918.538 688.018 898.013 708.546 872.694 708.546C847.375 708.546 826.85 688.018 826.85 662.696C826.85 637.373 847.375 616.846 872.694 616.846C898.013 616.846 918.538 637.373 918.538 662.696ZM918.538 389.023C918.538 414.346 898.013 434.874 872.694 434.874C847.375 434.874 826.85 414.346 826.85 389.023C826.85 363.701 847.375 343.173 872.694 343.173C898.013 343.173 918.538 363.701 918.538 389.023ZM918.538 936.258C918.538 961.581 898.013 982.109 872.694 982.109C847.375 982.109 826.85 961.581 826.85 936.258C826.85 910.936 847.375 890.408 872.694 890.408C898.013 890.408 918.538 910.936 918.538 936.258ZM918.538 252.352C918.538 277.675 898.013 298.202 872.694 298.202C847.375 298.202 826.85 277.675 826.85 252.352C826.85 227.03 847.375 206.502 872.694 206.502C898.013 206.502 918.538 227.03 918.538 252.352ZM918.538 799.532C918.538 824.885 898.013 845.437 872.694 845.437C847.375 845.437 826.85 824.885 826.85 799.532C826.85 774.179 847.375 753.627 872.694 753.627C898.013 753.627 918.538 774.179 918.538 799.532ZM918.538 525.86C918.538 551.212 898.013 571.765 872.694 571.765C847.375 571.765 826.85 551.212 826.85 525.86C826.85 500.507 847.375 479.954 872.694 479.954C898.013 479.954 918.538 500.507 918.538 525.86ZM918.538 1073.09C918.538 1098.45 898.013 1119 872.694 1119C847.375 1119 826.85 1098.45 826.85 1073.09C826.85 1047.74 847.375 1027.19 872.694 1027.19C898.013 1027.19 918.538 1047.74 918.538 1073.09ZM230.219 46.9053C230.219 72.2581 209.719 92.8106 184.431 92.8106C159.142 92.8106 138.642 72.2581 138.642 46.9053C138.642 21.5525 159.142 1 184.431 1C209.719 1 230.219 21.5525 230.219 46.9053ZM230.219 594.14C230.219 619.493 209.719 640.046 184.431 640.046C159.142 640.046 138.642 619.493 138.642 594.14C138.642 568.788 159.142 548.235 184.431 548.235C209.719 548.235 230.219 568.788 230.219 594.14ZM230.219 320.468C230.219 345.821 209.719 366.373 184.431 366.373C159.142 366.373 138.642 345.821 138.642 320.468C138.642 295.115 159.142 274.563 184.431 274.563C209.719 274.563 230.219 295.115 230.219 320.468ZM230.219 867.648C230.219 892.97 209.719 913.498 184.431 913.498C159.142 913.498 138.642 892.97 138.642 867.648C138.642 842.325 159.142 821.798 184.431 821.798C209.719 821.798 230.219 842.325 230.219 867.648ZM230.219 183.742C230.219 209.064 209.719 229.592 184.431 229.592C159.142 229.592 138.642 209.064 138.642 183.742C138.642 158.419 159.142 137.891 184.431 137.891C209.719 137.891 230.219 158.419 230.219 183.742ZM230.219 730.977C230.219 756.299 209.719 776.827 184.431 776.827C159.142 776.827 138.642 756.299 138.642 730.977C138.642 705.654 159.142 685.126 184.431 685.126C209.719 685.126 230.219 705.654 230.219 730.977ZM230.219 457.304C230.219 482.627 209.719 503.154 184.431 503.154C159.142 503.154 138.642 482.627 138.642 457.304C138.642 431.982 159.142 411.454 184.431 411.454C209.719 411.454 230.219 431.982 230.219 457.304ZM230.219 1004.48C230.219 1029.84 209.719 1050.39 184.431 1050.39C159.142 1050.39 138.642 1029.84 138.642 1004.48C138.642 979.131 159.142 958.579 184.431 958.579C209.719 958.579 230.219 979.131 230.219 1004.48ZM230.219 115.406C230.219 140.759 209.719 161.311 184.431 161.311C159.142 161.311 138.642 140.759 138.642 115.406C138.642 90.0531 159.142 69.5006 184.431 69.5006C209.719 69.5006 230.219 90.0531 230.219 115.406ZM230.219 662.586C230.219 687.908 209.719 708.436 184.431 708.436C159.142 708.436 138.642 687.908 138.642 662.586C138.642 637.264 159.142 616.736 184.431 616.736C209.719 616.736 230.219 637.264 230.219 662.586ZM230.219 388.913C230.219 414.236 209.719 434.764 184.431 434.764C159.142 434.764 138.642 414.236 138.642 388.913C138.642 363.591 159.142 343.063 184.431 343.063C209.719 343.063 230.219 363.591 230.219 388.913ZM230.219 936.148C230.219 961.471 209.719 981.999 184.431 981.999C159.142 981.999 138.642 961.471 138.642 936.148C138.642 910.826 159.142 890.298 184.431 890.298C209.719 890.298 230.219 910.826 230.219 936.148ZM230.219 252.242C230.219 277.565 209.719 298.092 184.431 298.092C159.142 298.092 138.642 277.565 138.642 252.242C138.642 226.92 159.142 206.392 184.431 206.392C209.719 206.392 230.219 226.92 230.219 252.242ZM230.219 799.422C230.219 824.775 209.719 845.328 184.431 845.328C159.142 845.328 138.642 824.775 138.642 799.422C138.642 774.069 159.142 753.517 184.431 753.517C209.719 753.517 230.219 774.069 230.219 799.422ZM230.219 525.695C230.219 551.017 209.719 571.545 184.431 571.545C159.142 571.545 138.642 551.017 138.642 525.695C138.642 500.372 159.142 479.844 184.431 479.844C209.719 479.844 230.219 500.372 230.219 525.695ZM230.219 1072.93C230.219 1098.25 209.719 1118.78 184.431 1118.78C159.142 1118.78 138.642 1098.25 138.642 1072.93C138.642 1047.61 159.142 1027.08 184.431 1027.08C209.719 1027.08 230.219 1047.61 230.219 1072.93ZM780.676 46.9053C780.676 72.2581 760.2 92.8106 734.942 92.8106C709.684 92.8106 689.208 72.2581 689.208 46.9053C689.208 21.5525 709.684 1 734.942 1C760.2 1 780.676 21.5525 780.676 46.9053ZM780.676 594.14C780.676 619.493 760.2 640.046 734.942 640.046C709.684 640.046 689.208 619.493 689.208 594.14C689.208 568.788 709.684 548.235 734.942 548.235C760.2 548.235 780.676 568.788 780.676 594.14ZM780.676 320.468C780.676 345.821 760.2 366.373 734.942 366.373C709.684 366.373 689.208 345.821 689.208 320.468C689.208 295.115 709.684 274.563 734.942 274.563C760.2 274.563 780.676 295.115 780.676 320.468ZM780.676 867.648C780.676 892.97 760.2 913.498 734.942 913.498C709.684 913.498 689.208 892.97 689.208 867.648C689.208 842.325 709.684 821.798 734.942 821.798C760.2 821.798 780.676 842.325 780.676 867.648ZM780.676 183.742C780.676 209.064 760.2 229.592 734.942 229.592C709.684 229.592 689.208 209.064 689.208 183.742C689.208 158.419 709.684 137.891 734.942 137.891C760.2 137.891 780.676 158.419 780.676 183.742ZM780.676 730.977C780.676 756.299 760.2 776.827 734.942 776.827C709.684 776.827 689.208 756.299 689.208 730.977C689.208 705.654 709.684 685.126 734.942 685.126C760.2 685.126 780.676 705.654 780.676 730.977ZM780.676 457.304C780.676 482.627 760.2 503.154 734.942 503.154C709.684 503.154 689.208 482.627 689.208 457.304C689.208 431.982 709.684 411.454 734.942 411.454C760.2 411.454 780.676 431.982 780.676 457.304ZM780.676 1004.48C780.676 1029.84 760.2 1050.39 734.942 1050.39C709.684 1050.39 689.208 1029.84 689.208 1004.48C689.208 979.131 709.684 958.579 734.942 958.579C760.2 958.579 780.676 979.131 780.676 1004.48ZM780.676 115.406C780.676 140.759 760.2 161.311 734.942 161.311C709.684 161.311 689.208 140.759 689.208 115.406C689.208 90.0531 709.684 69.5006 734.942 69.5006C760.2 69.5006 780.676 90.0531 780.676 115.406ZM780.676 662.586C780.676 687.908 760.2 708.436 734.942 708.436C709.684 708.436 689.208 687.908 689.208 662.586C689.208 637.264 709.684 616.736 734.942 616.736C760.2 616.736 780.676 637.264 780.676 662.586ZM780.676 388.913C780.676 414.236 760.2 434.764 734.942 434.764C709.684 434.764 689.208 414.236 689.208 388.913C689.208 363.591 709.684 343.063 734.942 343.063C760.2 343.063 780.676 363.591 780.676 388.913ZM780.676 936.148C780.676 961.471 760.2 981.999 734.942 981.999C709.684 981.999 689.208 961.471 689.208 936.148C689.208 910.826 709.684 890.298 734.942 890.298C760.2 890.298 780.676 910.826 780.676 936.148ZM780.676 252.242C780.676 277.565 760.2 298.092 734.942 298.092C709.684 298.092 689.208 277.565 689.208 252.242C689.208 226.92 709.684 206.392 734.942 206.392C760.2 206.392 780.676 226.92 780.676 252.242ZM780.676 799.422C780.676 824.775 760.2 845.328 734.942 845.328C709.684 845.328 689.208 824.775 689.208 799.422C689.208 774.069 709.684 753.517 734.942 753.517C760.2 753.517 780.676 774.069 780.676 799.422ZM780.676 525.695C780.676 551.017 760.2 571.545 734.942 571.545C709.684 571.545 689.208 551.017 689.208 525.695C689.208 500.372 709.684 479.844 734.942 479.844C760.2 479.844 780.676 500.372 780.676 525.695ZM780.676 1072.93C780.676 1098.25 760.2 1118.78 734.942 1118.78C709.684 1118.78 689.208 1098.25 689.208 1072.93C689.208 1047.61 709.684 1027.08 734.942 1027.08C760.2 1027.08 780.676 1047.61 780.676 1072.93ZM505.613 47.0702C505.613 72.3927 485.088 92.9205 459.769 92.9205C434.45 92.9205 413.925 72.3927 413.925 47.0702C413.925 21.7478 434.45 1.21991 459.769 1.21991C485.088 1.21991 505.613 21.7478 505.613 47.0702ZM505.613 594.305C505.613 619.628 485.088 640.156 459.769 640.156C434.45 640.156 413.925 619.628 413.925 594.305C413.925 568.983 434.45 548.455 459.769 548.455C485.088 548.455 505.613 568.983 505.613 594.305ZM505.613 320.578C505.613 345.931 485.088 366.483 459.769 366.483C434.45 366.483 413.925 345.931 413.925 320.578C413.925 295.225 434.45 274.672 459.769 274.672C485.088 274.672 505.613 295.225 505.613 320.578ZM505.613 867.758C505.613 893.08 485.088 913.608 459.769 913.608C434.45 913.608 413.925 893.08 413.925 867.758C413.925 842.435 434.45 821.908 459.769 821.908C485.088 821.908 505.613 842.435 505.613 867.758ZM505.613 183.852C505.613 209.174 485.088 229.702 459.769 229.702C434.45 229.702 413.925 209.174 413.925 183.852C413.925 158.529 434.45 138.001 459.769 138.001C485.088 138.001 505.613 158.529 505.613 183.852ZM505.613 731.087C505.613 756.409 485.088 776.937 459.769 776.937C434.45 776.937 413.925 756.409 413.925 731.087C413.925 705.764 434.45 685.236 459.769 685.236C485.088 685.236 505.613 705.764 505.613 731.087ZM505.613 457.414C505.613 482.736 485.088 503.264 459.769 503.264C434.45 503.264 413.925 482.736 413.925 457.414C413.925 432.092 434.45 411.564 459.769 411.564C485.088 411.564 505.613 432.092 505.613 457.414ZM505.613 1004.59C505.613 1029.95 485.088 1050.5 459.769 1050.5C434.45 1050.5 413.925 1029.95 413.925 1004.59C413.925 979.241 434.45 958.689 459.769 958.689C485.088 958.689 505.613 979.241 505.613 1004.59ZM505.613 115.516C505.613 140.869 485.088 161.421 459.769 161.421C434.45 161.421 413.925 140.869 413.925 115.516C413.925 90.163 434.45 69.6105 459.769 69.6105C485.088 69.6105 505.613 90.163 505.613 115.516ZM505.613 662.696C505.613 688.018 485.088 708.546 459.769 708.546C434.45 708.546 413.925 688.018 413.925 662.696C413.925 637.373 434.45 616.846 459.769 616.846C485.088 616.846 505.613 637.373 505.613 662.696ZM505.613 389.023C505.613 414.346 485.088 434.874 459.769 434.874C434.45 434.874 413.925 414.346 413.925 389.023C413.925 363.701 434.45 343.173 459.769 343.173C485.088 343.173 505.613 363.701 505.613 389.023ZM505.613 936.258C505.613 961.581 485.088 982.109 459.769 982.109C434.45 982.109 413.925 961.581 413.925 936.258C413.925 910.936 434.45 890.408 459.769 890.408C485.088 890.408 505.613 910.936 505.613 936.258ZM505.613 252.352C505.613 277.675 485.088 298.202 459.769 298.202C434.45 298.202 413.925 277.675 413.925 252.352C413.925 227.03 434.45 206.502 459.769 206.502C485.088 206.502 505.613 227.03 505.613 252.352ZM505.613 799.532C505.613 824.885 485.088 845.437 459.769 845.437C434.45 845.437 413.925 824.885 413.925 799.532C413.925 774.179 434.45 753.627 459.769 753.627C485.088 753.627 505.613 774.179 505.613 799.532ZM505.613 525.86C505.613 551.212 485.088 571.765 459.769 571.765C434.45 571.765 413.925 551.212 413.925 525.86C413.925 500.507 434.45 479.954 459.769 479.954C485.088 479.954 505.613 500.507 505.613 525.86ZM505.613 1073.09C505.613 1098.45 485.088 1119 459.769 1119C434.45 1119 413.925 1098.45 413.925 1073.09C413.925 1047.74 434.45 1027.19 459.769 1027.19C485.088 1027.19 505.613 1047.74 505.613 1073.09ZM1056.07 47.0702C1056.07 72.3927 1035.54 92.9205 1010.23 92.9205C984.906 92.9205 964.381 72.3927 964.381 47.0702C964.381 21.7478 984.906 1.21991 1010.23 1.21991C1035.54 1.21991 1056.07 21.7478 1056.07 47.0702ZM1056.07 594.305C1056.07 619.628 1035.54 640.156 1010.23 640.156C984.906 640.156 964.381 619.628 964.381 594.305C964.381 568.983 984.906 548.455 1010.23 548.455C1035.54 548.455 1056.07 568.983 1056.07 594.305ZM1056.07 320.578C1056.07 345.931 1035.54 366.483 1010.23 366.483C984.906 366.483 964.381 345.931 964.381 320.578C964.381 295.225 984.906 274.672 1010.23 274.672C1035.54 274.672 1056.07 295.225 1056.07 320.578ZM1056.07 867.758C1056.07 893.08 1035.54 913.608 1010.23 913.608C984.906 913.608 964.381 893.08 964.381 867.758C964.381 842.435 984.906 821.908 1010.23 821.908C1035.54 821.908 1056.07 842.435 1056.07 867.758ZM1056.07 183.852C1056.07 209.174 1035.54 229.702 1010.23 229.702C984.906 229.702 964.381 209.174 964.381 183.852C964.381 158.529 984.906 138.001 1010.23 138.001C1035.54 138.001 1056.07 158.529 1056.07 183.852ZM1056.07 731.087C1056.07 756.409 1035.54 776.937 1010.23 776.937C984.906 776.937 964.381 756.409 964.381 731.087C964.381 705.764 984.906 685.236 1010.23 685.236C1035.54 685.236 1056.07 705.764 1056.07 731.087ZM1056.07 457.414C1056.07 482.736 1035.54 503.264 1010.23 503.264C984.906 503.264 964.381 482.736 964.381 457.414C964.381 432.092 984.906 411.564 1010.23 411.564C1035.54 411.564 1056.07 432.092 1056.07 457.414ZM1056.07 1004.59C1056.07 1029.95 1035.54 1050.5 1010.23 1050.5C984.906 1050.5 964.381 1029.95 964.381 1004.59C964.381 979.241 984.906 958.689 1010.23 958.689C1035.54 958.689 1056.07 979.241 1056.07 1004.59ZM1056.07 115.516C1056.07 140.869 1035.54 161.421 1010.23 161.421C984.906 161.421 964.381 140.869 964.381 115.516C964.381 90.163 984.906 69.6105 1010.23 69.6105C1035.54 69.6105 1056.07 90.163 1056.07 115.516ZM1056.07 662.696C1056.07 688.018 1035.54 708.546 1010.23 708.546C984.906 708.546 964.381 688.018 964.381 662.696C964.381 637.373 984.906 616.846 1010.23 616.846C1035.54 616.846 1056.07 637.373 1056.07 662.696ZM1056.07 389.023C1056.07 414.346 1035.54 434.874 1010.23 434.874C984.906 434.874 964.381 414.346 964.381 389.023C964.381 363.701 984.906 343.173 1010.23 343.173C1035.54 343.173 1056.07 363.701 1056.07 389.023ZM1056.07 936.258C1056.07 961.581 1035.54 982.109 1010.23 982.109C984.906 982.109 964.381 961.581 964.381 936.258C964.381 910.936 984.906 890.408 1010.23 890.408C1035.54 890.408 1056.07 910.936 1056.07 936.258ZM1056.07 252.352C1056.07 277.675 1035.54 298.202 1010.23 298.202C984.906 298.202 964.381 277.675 964.381 252.352C964.381 227.03 984.906 206.502 1010.23 206.502C1035.54 206.502 1056.07 227.03 1056.07 252.352ZM1056.07 799.532C1056.07 824.885 1035.54 845.437 1010.23 845.437C984.906 845.437 964.381 824.885 964.381 799.532C964.381 774.179 984.906 753.627 1010.23 753.627C1035.54 753.627 1056.07 774.179 1056.07 799.532ZM1056.07 525.86C1056.07 551.212 1035.54 571.765 1010.23 571.765C984.906 571.765 964.381 551.212 964.381 525.86C964.381 500.507 984.906 479.954 1010.23 479.954C1035.54 479.954 1056.07 500.507 1056.07 525.86ZM1056.07 1073.09C1056.07 1098.45 1035.54 1119 1010.23 1119C984.906 1119 964.381 1098.45 964.381 1073.09C964.381 1047.74 984.906 1027.19 1010.23 1027.19C1035.54 1027.19 1056.07 1047.74 1056.07 1073.09ZM161.399 46.9053C161.399 72.2581 140.874 92.8106 115.555 92.8106C90.2359 92.8106 69.7109 72.2581 69.7109 46.9053C69.7109 21.5525 90.2359 1 115.555 1C140.874 1 161.399 21.5525 161.399 46.9053ZM161.399 594.14C161.399 619.493 140.874 640.046 115.555 640.046C90.2359 640.046 69.7109 619.493 69.7109 594.14C69.7109 568.788 90.2359 548.235 115.555 548.235C140.874 548.235 161.399 568.788 161.399 594.14ZM161.399 320.468C161.399 345.821 140.874 366.373 115.555 366.373C90.2359 366.373 69.7109 345.821 69.7109 320.468C69.7109 295.115 90.2359 274.563 115.555 274.563C140.874 274.563 161.399 295.115 161.399 320.468ZM161.399 867.648C161.399 892.97 140.874 913.498 115.555 913.498C90.2359 913.498 69.7109 892.97 69.7109 867.648C69.7109 842.325 90.2359 821.798 115.555 821.798C140.874 821.798 161.399 842.325 161.399 867.648ZM161.399 183.742C161.399 209.064 140.874 229.592 115.555 229.592C90.2359 229.592 69.7109 209.064 69.7109 183.742C69.7109 158.419 90.2359 137.891 115.555 137.891C140.874 137.891 161.399 158.419 161.399 183.742ZM161.399 730.977C161.399 756.299 140.874 776.827 115.555 776.827C90.2359 776.827 69.7109 756.299 69.7109 730.977C69.7109 705.654 90.2359 685.126 115.555 685.126C140.874 685.126 161.399 705.654 161.399 730.977ZM161.399 457.304C161.399 482.627 140.874 503.154 115.555 503.154C90.2359 503.154 69.7109 482.627 69.7109 457.304C69.7109 431.982 90.2359 411.454 115.555 411.454C140.874 411.454 161.399 431.982 161.399 457.304ZM161.399 1004.48C161.399 1029.84 140.874 1050.39 115.555 1050.39C90.2359 1050.39 69.7109 1029.84 69.7109 1004.48C69.7109 979.131 90.2359 958.579 115.555 958.579C140.874 958.579 161.399 979.131 161.399 1004.48ZM161.399 115.406C161.399 140.759 140.874 161.311 115.555 161.311C90.2359 161.311 69.7109 140.759 69.7109 115.406C69.7109 90.0531 90.2359 69.5006 115.555 69.5006C140.874 69.5006 161.399 90.0531 161.399 115.406ZM161.399 662.586C161.399 687.908 140.874 708.436 115.555 708.436C90.2359 708.436 69.7109 687.908 69.7109 662.586C69.7109 637.264 90.2359 616.736 115.555 616.736C140.874 616.736 161.399 637.264 161.399 662.586ZM161.399 388.913C161.399 414.236 140.874 434.764 115.555 434.764C90.2359 434.764 69.7109 414.236 69.7109 388.913C69.7109 363.591 90.2359 343.063 115.555 343.063C140.874 343.063 161.399 363.591 161.399 388.913ZM161.399 936.148C161.399 961.471 140.874 981.999 115.555 981.999C90.2359 981.999 69.7109 961.471 69.7109 936.148C69.7109 910.826 90.2359 890.298 115.555 890.298C140.874 890.298 161.399 910.826 161.399 936.148ZM161.399 252.242C161.399 277.565 140.874 298.092 115.555 298.092C90.2359 298.092 69.7109 277.565 69.7109 252.242C69.7109 226.92 90.2359 206.392 115.555 206.392C140.874 206.392 161.399 226.92 161.399 252.242ZM161.399 799.422C161.399 824.775 140.874 845.328 115.555 845.328C90.2359 845.328 69.7109 824.775 69.7109 799.422C69.7109 774.069 90.2359 753.517 115.555 753.517C140.874 753.517 161.399 774.069 161.399 799.422ZM161.399 525.695C161.399 551.017 140.874 571.545 115.555 571.545C90.2359 571.545 69.7109 551.017 69.7109 525.695C69.7109 500.372 90.2359 479.844 115.555 479.844C140.874 479.844 161.399 500.372 161.399 525.695ZM161.399 1072.93C161.399 1098.25 140.874 1118.78 115.555 1118.78C90.2359 1118.78 69.7109 1098.25 69.7109 1072.93C69.7109 1047.61 90.2359 1027.08 115.555 1027.08C140.874 1027.08 161.399 1047.61 161.399 1072.93ZM711.965 46.9053C711.965 72.2581 691.465 92.8106 666.176 92.8106C640.888 92.8106 620.387 72.2581 620.387 46.9053C620.387 21.5525 640.888 1 666.176 1C691.465 1 711.965 21.5525 711.965 46.9053ZM711.965 594.14C711.965 619.493 691.465 640.046 666.176 640.046C640.888 640.046 620.387 619.493 620.387 594.14C620.387 568.788 640.888 548.235 666.176 548.235C691.465 548.235 711.965 568.788 711.965 594.14ZM711.965 320.468C711.965 345.821 691.465 366.373 666.176 366.373C640.888 366.373 620.387 345.821 620.387 320.468C620.387 295.115 640.888 274.563 666.176 274.563C691.465 274.563 711.965 295.115 711.965 320.468ZM711.965 867.648C711.965 892.97 691.465 913.498 666.176 913.498C640.888 913.498 620.387 892.97 620.387 867.648C620.387 842.325 640.888 821.798 666.176 821.798C691.465 821.798 711.965 842.325 711.965 867.648ZM711.965 183.742C711.965 209.064 691.465 229.592 666.176 229.592C640.888 229.592 620.387 209.064 620.387 183.742C620.387 158.419 640.888 137.891 666.176 137.891C691.465 137.891 711.965 158.419 711.965 183.742ZM711.965 730.977C711.965 756.299 691.465 776.827 666.176 776.827C640.888 776.827 620.387 756.299 620.387 730.977C620.387 705.654 640.888 685.126 666.176 685.126C691.465 685.126 711.965 705.654 711.965 730.977ZM711.965 457.304C711.965 482.627 691.465 503.154 666.176 503.154C640.888 503.154 620.387 482.627 620.387 457.304C620.387 431.982 640.888 411.454 666.176 411.454C691.465 411.454 711.965 431.982 711.965 457.304ZM711.965 1004.48C711.965 1029.84 691.465 1050.39 666.176 1050.39C640.888 1050.39 620.387 1029.84 620.387 1004.48C620.387 979.131 640.888 958.579 666.176 958.579C691.465 958.579 711.965 979.131 711.965 1004.48ZM711.965 115.406C711.965 140.759 691.465 161.311 666.176 161.311C640.888 161.311 620.387 140.759 620.387 115.406C620.387 90.0531 640.888 69.5006 666.176 69.5006C691.465 69.5006 711.965 90.0531 711.965 115.406ZM711.965 662.586C711.965 687.908 691.465 708.436 666.176 708.436C640.888 708.436 620.387 687.908 620.387 662.586C620.387 637.264 640.888 616.736 666.176 616.736C691.465 616.736 711.965 637.264 711.965 662.586ZM711.965 388.913C711.965 414.236 691.465 434.764 666.176 434.764C640.888 434.764 620.387 414.236 620.387 388.913C620.387 363.591 640.888 343.063 666.176 343.063C691.465 343.063 711.965 363.591 711.965 388.913ZM711.965 936.148C711.965 961.471 691.465 981.999 666.176 981.999C640.888 981.999 620.387 961.471 620.387 936.148C620.387 910.826 640.888 890.298 666.176 890.298C691.465 890.298 711.965 910.826 711.965 936.148ZM711.965 252.242C711.965 277.565 691.465 298.092 666.176 298.092C640.888 298.092 620.387 277.565 620.387 252.242C620.387 226.92 640.888 206.392 666.176 206.392C691.465 206.392 711.965 226.92 711.965 252.242ZM711.965 799.422C711.965 824.775 691.465 845.328 666.176 845.328C640.888 845.328 620.387 824.775 620.387 799.422C620.387 774.069 640.888 753.517 666.176 753.517C691.465 753.517 711.965 774.069 711.965 799.422ZM711.965 525.695C711.965 551.017 691.465 571.545 666.176 571.545C640.888 571.545 620.387 551.017 620.387 525.695C620.387 500.372 640.888 479.844 666.176 479.844C691.465 479.844 711.965 500.372 711.965 525.695ZM711.965 1072.93C711.965 1098.25 691.465 1118.78 666.176 1118.78C640.888 1118.78 620.387 1098.25 620.387 1072.93C620.387 1047.61 640.888 1027.08 666.176 1027.08C691.465 1027.08 711.965 1047.61 711.965 1072.93ZM436.682 47.0702C436.682 72.3927 416.182 92.9205 390.893 92.9205C365.604 92.9205 345.104 72.3927 345.104 47.0702C345.104 21.7478 365.604 1.21991 390.893 1.21991C416.182 1.21991 436.682 21.7478 436.682 47.0702ZM436.682 594.305C436.682 619.628 416.182 640.156 390.893 640.156C365.604 640.156 345.104 619.628 345.104 594.305C345.104 568.983 365.604 548.455 390.893 548.455C416.182 548.455 436.682 568.983 436.682 594.305ZM436.682 320.578C436.682 345.931 416.182 366.483 390.893 366.483C365.604 366.483 345.104 345.931 345.104 320.578C345.104 295.225 365.604 274.672 390.893 274.672C416.182 274.672 436.682 295.225 436.682 320.578ZM436.682 867.758C436.682 893.08 416.182 913.608 390.893 913.608C365.604 913.608 345.104 893.08 345.104 867.758C345.104 842.435 365.604 821.908 390.893 821.908C416.182 821.908 436.682 842.435 436.682 867.758ZM436.682 183.852C436.682 209.174 416.182 229.702 390.893 229.702C365.604 229.702 345.104 209.174 345.104 183.852C345.104 158.529 365.604 138.001 390.893 138.001C416.182 138.001 436.682 158.529 436.682 183.852ZM436.682 731.087C436.682 756.409 416.182 776.937 390.893 776.937C365.604 776.937 345.104 756.409 345.104 731.087C345.104 705.764 365.604 685.236 390.893 685.236C416.182 685.236 436.682 705.764 436.682 731.087ZM436.682 457.414C436.682 482.736 416.182 503.264 390.893 503.264C365.604 503.264 345.104 482.736 345.104 457.414C345.104 432.092 365.604 411.564 390.893 411.564C416.182 411.564 436.682 432.092 436.682 457.414ZM436.682 1004.59C436.682 1029.95 416.182 1050.5 390.893 1050.5C365.604 1050.5 345.104 1029.95 345.104 1004.59C345.104 979.241 365.604 958.689 390.893 958.689C416.182 958.689 436.682 979.241 436.682 1004.59ZM436.682 115.516C436.682 140.869 416.182 161.421 390.893 161.421C365.604 161.421 345.104 140.869 345.104 115.516C345.104 90.163 365.604 69.6105 390.893 69.6105C416.182 69.6105 436.682 90.163 436.682 115.516ZM436.682 662.696C436.682 688.018 416.182 708.546 390.893 708.546C365.604 708.546 345.104 688.018 345.104 662.696C345.104 637.373 365.604 616.846 390.893 616.846C416.182 616.846 436.682 637.373 436.682 662.696ZM436.682 389.023C436.682 414.346 416.182 434.874 390.893 434.874C365.604 434.874 345.104 414.346 345.104 389.023C345.104 363.701 365.604 343.173 390.893 343.173C416.182 343.173 436.682 363.701 436.682 389.023ZM436.682 936.258C436.682 961.581 416.182 982.109 390.893 982.109C365.604 982.109 345.104 961.581 345.104 936.258C345.104 910.936 365.604 890.408 390.893 890.408C416.182 890.408 436.682 910.936 436.682 936.258ZM436.682 252.352C436.682 277.675 416.182 298.202 390.893 298.202C365.604 298.202 345.104 277.675 345.104 252.352C345.104 227.03 365.604 206.502 390.893 206.502C416.182 206.502 436.682 227.03 436.682 252.352ZM436.682 799.532C436.682 824.885 416.182 845.437 390.893 845.437C365.604 845.437 345.104 824.885 345.104 799.532C345.104 774.179 365.604 753.627 390.893 753.627C416.182 753.627 436.682 774.179 436.682 799.532ZM436.682 525.86C436.682 551.212 416.182 571.765 390.893 571.765C365.604 571.765 345.104 551.212 345.104 525.86C345.104 500.507 365.604 479.954 390.893 479.954C416.182 479.954 436.682 500.507 436.682 525.86ZM436.682 1073.09C436.682 1098.45 416.182 1119 390.893 1119C365.604 1119 345.104 1098.45 345.104 1073.09C345.104 1047.74 365.604 1027.19 390.893 1027.19C416.182 1027.19 436.682 1047.74 436.682 1073.09ZM987.138 47.0702C987.138 72.3927 966.638 92.9205 941.35 92.9205C916.061 92.9205 895.561 72.3927 895.561 47.0702C895.561 21.7478 916.061 1.21991 941.35 1.21991C966.638 1.21991 987.138 21.7478 987.138 47.0702ZM987.138 594.305C987.138 619.628 966.638 640.156 941.35 640.156C916.061 640.156 895.561 619.628 895.561 594.305C895.561 568.983 916.061 548.455 941.35 548.455C966.638 548.455 987.138 568.983 987.138 594.305ZM987.138 320.578C987.138 345.931 966.638 366.483 941.35 366.483C916.061 366.483 895.561 345.931 895.561 320.578C895.561 295.225 916.061 274.672 941.35 274.672C966.638 274.672 987.138 295.225 987.138 320.578ZM987.138 867.758C987.138 893.08 966.638 913.608 941.35 913.608C916.061 913.608 895.561 893.08 895.561 867.758C895.561 842.435 916.061 821.908 941.35 821.908C966.638 821.908 987.138 842.435 987.138 867.758ZM987.138 183.852C987.138 209.174 966.638 229.702 941.35 229.702C916.061 229.702 895.561 209.174 895.561 183.852C895.561 158.529 916.061 138.001 941.35 138.001C966.638 138.001 987.138 158.529 987.138 183.852ZM987.138 731.087C987.138 756.409 966.638 776.937 941.35 776.937C916.061 776.937 895.561 756.409 895.561 731.087C895.561 705.764 916.061 685.236 941.35 685.236C966.638 685.236 987.138 705.764 987.138 731.087ZM987.138 457.414C987.138 482.736 966.638 503.264 941.35 503.264C916.061 503.264 895.561 482.736 895.561 457.414C895.561 432.092 916.061 411.564 941.35 411.564C966.638 411.564 987.138 432.092 987.138 457.414ZM987.138 1004.59C987.138 1029.95 966.638 1050.5 941.35 1050.5C916.061 1050.5 895.561 1029.95 895.561 1004.59C895.561 979.241 916.061 958.689 941.35 958.689C966.638 958.689 987.138 979.241 987.138 1004.59ZM987.138 115.516C987.138 140.869 966.638 161.421 941.35 161.421C916.061 161.421 895.561 140.869 895.561 115.516C895.561 90.163 916.061 69.6105 941.35 69.6105C966.638 69.6105 987.138 90.163 987.138 115.516ZM987.138 662.696C987.138 688.018 966.638 708.546 941.35 708.546C916.061 708.546 895.561 688.018 895.561 662.696C895.561 637.373 916.061 616.846 941.35 616.846C966.638 616.846 987.138 637.373 987.138 662.696ZM987.138 389.023C987.138 414.346 966.638 434.874 941.35 434.874C916.061 434.874 895.561 414.346 895.561 389.023C895.561 363.701 916.061 343.173 941.35 343.173C966.638 343.173 987.138 363.701 987.138 389.023ZM987.138 936.258C987.138 961.581 966.638 982.109 941.35 982.109C916.061 982.109 895.561 961.581 895.561 936.258C895.561 910.936 916.061 890.408 941.35 890.408C966.638 890.408 987.138 910.936 987.138 936.258ZM987.138 252.352C987.138 277.675 966.638 298.202 941.35 298.202C916.061 298.202 895.561 277.675 895.561 252.352C895.561 227.03 916.061 206.502 941.35 206.502C966.638 206.502 987.138 227.03 987.138 252.352ZM987.138 799.532C987.138 824.885 966.638 845.437 941.35 845.437C916.061 845.437 895.561 824.885 895.561 799.532C895.561 774.179 916.061 753.627 941.35 753.627C966.638 753.627 987.138 774.179 987.138 799.532ZM987.138 525.86C987.138 551.212 966.638 571.765 941.35 571.765C916.061 571.765 895.561 551.212 895.561 525.86C895.561 500.507 916.061 479.954 941.35 479.954C966.638 479.954 987.138 500.507 987.138 525.86ZM987.138 1073.09C987.138 1098.45 966.638 1119 941.35 1119C916.061 1119 895.561 1098.45 895.561 1073.09C895.561 1047.74 916.061 1027.19 941.35 1027.19C966.638 1027.19 987.138 1047.74 987.138 1073.09ZM299.15 46.9053C299.15 72.2581 278.625 92.8106 253.306 92.8106C227.987 92.8106 207.462 72.2581 207.462 46.9053C207.462 21.5525 227.987 1 253.306 1C278.625 1 299.15 21.5525 299.15 46.9053ZM299.15 594.14C299.15 619.493 278.625 640.046 253.306 640.046C227.987 640.046 207.462 619.493 207.462 594.14C207.462 568.788 227.987 548.235 253.306 548.235C278.625 548.235 299.15 568.788 299.15 594.14ZM299.15 320.468C299.15 345.821 278.625 366.373 253.306 366.373C227.987 366.373 207.462 345.821 207.462 320.468C207.462 295.115 227.987 274.563 253.306 274.563C278.625 274.563 299.15 295.115 299.15 320.468ZM299.15 867.648C299.15 892.97 278.625 913.498 253.306 913.498C227.987 913.498 207.462 892.97 207.462 867.648C207.462 842.325 227.987 821.798 253.306 821.798C278.625 821.798 299.15 842.325 299.15 867.648ZM299.15 183.742C299.15 209.064 278.625 229.592 253.306 229.592C227.987 229.592 207.462 209.064 207.462 183.742C207.462 158.419 227.987 137.891 253.306 137.891C278.625 137.891 299.15 158.419 299.15 183.742ZM299.15 730.977C299.15 756.299 278.625 776.827 253.306 776.827C227.987 776.827 207.462 756.299 207.462 730.977C207.462 705.654 227.987 685.126 253.306 685.126C278.625 685.126 299.15 705.654 299.15 730.977ZM299.15 457.304C299.15 482.627 278.625 503.154 253.306 503.154C227.987 503.154 207.462 482.627 207.462 457.304C207.462 431.982 227.987 411.454 253.306 411.454C278.625 411.454 299.15 431.982 299.15 457.304ZM299.15 1004.48C299.15 1029.84 278.625 1050.39 253.306 1050.39C227.987 1050.39 207.462 1029.84 207.462 1004.48C207.462 979.131 227.987 958.579 253.306 958.579C278.625 958.579 299.15 979.131 299.15 1004.48ZM299.15 115.406C299.15 140.759 278.625 161.311 253.306 161.311C227.987 161.311 207.462 140.759 207.462 115.406C207.462 90.0531 227.987 69.5006 253.306 69.5006C278.625 69.5006 299.15 90.0531 299.15 115.406ZM299.15 662.586C299.15 687.908 278.625 708.436 253.306 708.436C227.987 708.436 207.462 687.908 207.462 662.586C207.462 637.264 227.987 616.736 253.306 616.736C278.625 616.736 299.15 637.264 299.15 662.586ZM299.15 388.913C299.15 414.236 278.625 434.764 253.306 434.764C227.987 434.764 207.462 414.236 207.462 388.913C207.462 363.591 227.987 343.063 253.306 343.063C278.625 343.063 299.15 363.591 299.15 388.913ZM299.15 936.148C299.15 961.471 278.625 981.999 253.306 981.999C227.987 981.999 207.462 961.471 207.462 936.148C207.462 910.826 227.987 890.298 253.306 890.298C278.625 890.298 299.15 910.826 299.15 936.148ZM299.15 252.242C299.15 277.565 278.625 298.092 253.306 298.092C227.987 298.092 207.462 277.565 207.462 252.242C207.462 226.92 227.987 206.392 253.306 206.392C278.625 206.392 299.15 226.92 299.15 252.242ZM299.15 799.422C299.15 824.775 278.625 845.328 253.306 845.328C227.987 845.328 207.462 824.775 207.462 799.422C207.462 774.069 227.987 753.517 253.306 753.517C278.625 753.517 299.15 774.069 299.15 799.422ZM299.15 525.695C299.15 551.017 278.625 571.545 253.306 571.545C227.987 571.545 207.462 551.017 207.462 525.695C207.462 500.372 227.987 479.844 253.306 479.844C278.625 479.844 299.15 500.372 299.15 525.695ZM299.15 1072.93C299.15 1098.25 278.625 1118.78 253.306 1118.78C227.987 1118.78 207.462 1098.25 207.462 1072.93C207.462 1047.61 227.987 1027.08 253.306 1027.08C278.625 1027.08 299.15 1047.61 299.15 1072.93ZM849.607 46.9053C849.607 72.2581 829.131 92.8106 803.873 92.8106C778.615 92.8106 758.139 72.2581 758.139 46.9053C758.139 21.5525 778.615 1 803.873 1C829.131 1 849.607 21.5525 849.607 46.9053ZM849.607 594.14C849.607 619.493 829.131 640.046 803.873 640.046C778.615 640.046 758.139 619.493 758.139 594.14C758.139 568.788 778.615 548.235 803.873 548.235C829.131 548.235 849.607 568.788 849.607 594.14ZM849.607 320.468C849.607 345.821 829.131 366.373 803.873 366.373C778.615 366.373 758.139 345.821 758.139 320.468C758.139 295.115 778.615 274.563 803.873 274.563C829.131 274.563 849.607 295.115 849.607 320.468ZM849.607 867.648C849.607 892.97 829.131 913.498 803.873 913.498C778.615 913.498 758.139 892.97 758.139 867.648C758.139 842.325 778.615 821.798 803.873 821.798C829.131 821.798 849.607 842.325 849.607 867.648ZM849.607 183.742C849.607 209.064 829.131 229.592 803.873 229.592C778.615 229.592 758.139 209.064 758.139 183.742C758.139 158.419 778.615 137.891 803.873 137.891C829.131 137.891 849.607 158.419 849.607 183.742ZM849.607 730.977C849.607 756.299 829.131 776.827 803.873 776.827C778.615 776.827 758.139 756.299 758.139 730.977C758.139 705.654 778.615 685.126 803.873 685.126C829.131 685.126 849.607 705.654 849.607 730.977ZM849.607 457.304C849.607 482.627 829.131 503.154 803.873 503.154C778.615 503.154 758.139 482.627 758.139 457.304C758.139 431.982 778.615 411.454 803.873 411.454C829.131 411.454 849.607 431.982 849.607 457.304ZM849.607 1004.48C849.607 1029.84 829.131 1050.39 803.873 1050.39C778.615 1050.39 758.139 1029.84 758.139 1004.48C758.139 979.131 778.615 958.579 803.873 958.579C829.131 958.579 849.607 979.131 849.607 1004.48ZM849.607 115.406C849.607 140.759 829.131 161.311 803.873 161.311C778.615 161.311 758.139 140.759 758.139 115.406C758.139 90.0531 778.615 69.5006 803.873 69.5006C829.131 69.5006 849.607 90.0531 849.607 115.406ZM849.607 662.586C849.607 687.908 829.131 708.436 803.873 708.436C778.615 708.436 758.139 687.908 758.139 662.586C758.139 637.264 778.615 616.736 803.873 616.736C829.131 616.736 849.607 637.264 849.607 662.586ZM849.607 388.913C849.607 414.236 829.131 434.764 803.873 434.764C778.615 434.764 758.139 414.236 758.139 388.913C758.139 363.591 778.615 343.063 803.873 343.063C829.131 343.063 849.607 363.591 849.607 388.913ZM849.607 936.148C849.607 961.471 829.131 981.999 803.873 981.999C778.615 981.999 758.139 961.471 758.139 936.148C758.139 910.826 778.615 890.298 803.873 890.298C829.131 890.298 849.607 910.826 849.607 936.148ZM849.607 252.242C849.607 277.565 829.131 298.092 803.873 298.092C778.615 298.092 758.139 277.565 758.139 252.242C758.139 226.92 778.615 206.392 803.873 206.392C829.131 206.392 849.607 226.92 849.607 252.242ZM849.607 799.422C849.607 824.775 829.131 845.328 803.873 845.328C778.615 845.328 758.139 824.775 758.139 799.422C758.139 774.069 778.615 753.517 803.873 753.517C829.131 753.517 849.607 774.069 849.607 799.422ZM849.607 525.695C849.607 551.017 829.131 571.545 803.873 571.545C778.615 571.545 758.139 551.017 758.139 525.695C758.139 500.372 778.615 479.844 803.873 479.844C829.131 479.844 849.607 500.372 849.607 525.695ZM849.607 1072.93C849.607 1098.25 829.131 1118.78 803.873 1118.78C778.615 1118.78 758.139 1098.25 758.139 1072.93C758.139 1047.61 778.615 1027.08 803.873 1027.08C829.131 1027.08 849.607 1047.61 849.607 1072.93ZM574.543 47.0702C574.543 72.3927 554.018 92.9205 528.7 92.9205C503.381 92.9205 482.856 72.3927 482.856 47.0702C482.856 21.7478 503.381 1.21991 528.7 1.21991C554.018 1.21991 574.543 21.7478 574.543 47.0702ZM574.543 594.305C574.543 619.628 554.018 640.156 528.7 640.156C503.381 640.156 482.856 619.628 482.856 594.305C482.856 568.983 503.381 548.455 528.7 548.455C554.018 548.455 574.543 568.983 574.543 594.305ZM574.543 320.578C574.543 345.931 554.018 366.483 528.7 366.483C503.381 366.483 482.856 345.931 482.856 320.578C482.856 295.225 503.381 274.672 528.7 274.672C554.018 274.672 574.543 295.225 574.543 320.578ZM574.543 867.758C574.543 893.08 554.018 913.608 528.7 913.608C503.381 913.608 482.856 893.08 482.856 867.758C482.856 842.435 503.381 821.908 528.7 821.908C554.018 821.908 574.543 842.435 574.543 867.758ZM574.543 183.852C574.543 209.174 554.018 229.702 528.7 229.702C503.381 229.702 482.856 209.174 482.856 183.852C482.856 158.529 503.381 138.001 528.7 138.001C554.018 138.001 574.543 158.529 574.543 183.852ZM574.543 731.087C574.543 756.409 554.018 776.937 528.7 776.937C503.381 776.937 482.856 756.409 482.856 731.087C482.856 705.764 503.381 685.236 528.7 685.236C554.018 685.236 574.543 705.764 574.543 731.087ZM574.543 457.414C574.543 482.736 554.018 503.264 528.7 503.264C503.381 503.264 482.856 482.736 482.856 457.414C482.856 432.092 503.381 411.564 528.7 411.564C554.018 411.564 574.543 432.092 574.543 457.414ZM574.543 1004.59C574.543 1029.95 554.018 1050.5 528.7 1050.5C503.381 1050.5 482.856 1029.95 482.856 1004.59C482.856 979.241 503.381 958.689 528.7 958.689C554.018 958.689 574.543 979.241 574.543 1004.59ZM574.543 115.516C574.543 140.869 554.018 161.421 528.7 161.421C503.381 161.421 482.856 140.869 482.856 115.516C482.856 90.163 503.381 69.6105 528.7 69.6105C554.018 69.6105 574.543 90.163 574.543 115.516ZM574.543 662.696C574.543 688.018 554.018 708.546 528.7 708.546C503.381 708.546 482.856 688.018 482.856 662.696C482.856 637.373 503.381 616.846 528.7 616.846C554.018 616.846 574.543 637.373 574.543 662.696ZM574.543 389.023C574.543 414.346 554.018 434.874 528.7 434.874C503.381 434.874 482.856 414.346 482.856 389.023C482.856 363.701 503.381 343.173 528.7 343.173C554.018 343.173 574.543 363.701 574.543 389.023ZM574.543 936.258C574.543 961.581 554.018 982.109 528.7 982.109C503.381 982.109 482.856 961.581 482.856 936.258C482.856 910.936 503.381 890.408 528.7 890.408C554.018 890.408 574.543 910.936 574.543 936.258ZM574.543 252.352C574.543 277.675 554.018 298.202 528.7 298.202C503.381 298.202 482.856 277.675 482.856 252.352C482.856 227.03 503.381 206.502 528.7 206.502C554.018 206.502 574.543 227.03 574.543 252.352ZM574.543 799.532C574.543 824.885 554.018 845.437 528.7 845.437C503.381 845.437 482.856 824.885 482.856 799.532C482.856 774.179 503.381 753.627 528.7 753.627C554.018 753.627 574.543 774.179 574.543 799.532ZM574.543 525.86C574.543 551.212 554.018 571.765 528.7 571.765C503.381 571.765 482.856 551.212 482.856 525.86C482.856 500.507 503.381 479.954 528.7 479.954C554.018 479.954 574.543 500.507 574.543 525.86ZM574.543 1073.09C574.543 1098.45 554.018 1119 528.7 1119C503.381 1119 482.856 1098.45 482.856 1073.09C482.856 1047.74 503.381 1027.19 528.7 1027.19C554.018 1027.19 574.543 1047.74 574.543 1073.09ZM1125 47.0702C1125 72.3927 1104.5 92.9205 1079.21 92.9205C1053.92 92.9205 1033.42 72.3927 1033.42 47.0702C1033.42 21.7478 1053.92 1.21991 1079.21 1.21991C1104.5 1.21991 1125 21.7478 1125 47.0702ZM1125 594.305C1125 619.628 1104.5 640.156 1079.21 640.156C1053.92 640.156 1033.42 619.628 1033.42 594.305C1033.42 568.983 1053.92 548.455 1079.21 548.455C1104.5 548.455 1125 568.983 1125 594.305ZM1125 320.578C1125 345.931 1104.5 366.483 1079.21 366.483C1053.92 366.483 1033.42 345.931 1033.42 320.578C1033.42 295.225 1053.92 274.672 1079.21 274.672C1104.5 274.672 1125 295.225 1125 320.578ZM1125 867.758C1125 893.08 1104.5 913.608 1079.21 913.608C1053.92 913.608 1033.42 893.08 1033.42 867.758C1033.42 842.435 1053.92 821.908 1079.21 821.908C1104.5 821.908 1125 842.435 1125 867.758ZM1125 183.852C1125 209.174 1104.5 229.702 1079.21 229.702C1053.92 229.702 1033.42 209.174 1033.42 183.852C1033.42 158.529 1053.92 138.001 1079.21 138.001C1104.5 138.001 1125 158.529 1125 183.852ZM1125 731.087C1125 756.409 1104.5 776.937 1079.21 776.937C1053.92 776.937 1033.42 756.409 1033.42 731.087C1033.42 705.764 1053.92 685.236 1079.21 685.236C1104.5 685.236 1125 705.764 1125 731.087ZM1125 457.414C1125 482.736 1104.5 503.264 1079.21 503.264C1053.92 503.264 1033.42 482.736 1033.42 457.414C1033.42 432.092 1053.92 411.564 1079.21 411.564C1104.5 411.564 1125 432.092 1125 457.414ZM1125 1004.59C1125 1029.95 1104.5 1050.5 1079.21 1050.5C1053.92 1050.5 1033.42 1029.95 1033.42 1004.59C1033.42 979.241 1053.92 958.689 1079.21 958.689C1104.5 958.689 1125 979.241 1125 1004.59ZM1125 115.516C1125 140.869 1104.5 161.421 1079.21 161.421C1053.92 161.421 1033.42 140.869 1033.42 115.516C1033.42 90.163 1053.92 69.6105 1079.21 69.6105C1104.5 69.6105 1125 90.163 1125 115.516ZM1125 662.696C1125 688.018 1104.5 708.546 1079.21 708.546C1053.92 708.546 1033.42 688.018 1033.42 662.696C1033.42 637.373 1053.92 616.846 1079.21 616.846C1104.5 616.846 1125 637.373 1125 662.696ZM1125 389.023C1125 414.346 1104.5 434.874 1079.21 434.874C1053.92 434.874 1033.42 414.346 1033.42 389.023C1033.42 363.701 1053.92 343.173 1079.21 343.173C1104.5 343.173 1125 363.701 1125 389.023ZM1125 936.258C1125 961.581 1104.5 982.109 1079.21 982.109C1053.92 982.109 1033.42 961.581 1033.42 936.258C1033.42 910.936 1053.92 890.408 1079.21 890.408C1104.5 890.408 1125 910.936 1125 936.258ZM1125 252.352C1125 277.675 1104.5 298.202 1079.21 298.202C1053.92 298.202 1033.42 277.675 1033.42 252.352C1033.42 227.03 1053.92 206.502 1079.21 206.502C1104.5 206.502 1125 227.03 1125 252.352ZM1125 799.532C1125 824.885 1104.5 845.437 1079.21 845.437C1053.92 845.437 1033.42 824.885 1033.42 799.532C1033.42 774.179 1053.92 753.627 1079.21 753.627C1104.5 753.627 1125 774.179 1125 799.532ZM1125 525.86C1125 551.212 1104.5 571.765 1079.21 571.765C1053.92 571.765 1033.42 551.212 1033.42 525.86C1033.42 500.507 1053.92 479.954 1079.21 479.954C1104.5 479.954 1125 500.507 1125 525.86ZM1125 1073.09C1125 1098.45 1104.5 1119 1079.21 1119C1053.92 1119 1033.42 1098.45 1033.42 1073.09C1033.42 1047.74 1053.92 1027.19 1079.21 1027.19C1104.5 1027.19 1125 1047.74 1125 1073.09Z" stroke="url(#paint0_linear_34_2)"/>
<defs>
<linearGradient id="paint0_linear_34_2" x1="563" y1="1" x2="563" y2="1119" gradientUnits="userSpaceOnUse">
<stop stop-color="#BED5FA"/>
<stop offset="1" stop-color="#C5D3EA"/>
</linearGradient>
</defs>
</svg>
